<?xml version="1.0" standalone="no"?>
<!DOCTYPE svg PUBLIC "-//W3C//DTD SVG 20010904//EN"
 "http://www.w3.org/TR/2001/REC-SVG-20010904/DTD/svg10.dtd">
<svg version="1.0" xmlns="http://www.w3.org/2000/svg"
 width="225.000000pt" height="225.000000pt" viewBox="0 0 225.000000 225.000000"
 preserveAspectRatio="xMidYMid meet">
<g transform="translate(0.000000,225.000000) scale(0.100000,-0.100000)"
fill="#000000" stroke="none">
<path d="M870 2138 c-19 -5 -50 -11 -67 -12 -41 -3 -51 -12 -24 -21 12 -3 37
-1 56 5 19 6 40 8 46 4 8 -5 9 -3 4 5 -6 10 20 12 126 7 74 -3 150 -8 169 -10
19 -2 44 -5 55 -6 15 -2 12 -5 -10 -10 -28 -8 -28 -9 10 -8 22 1 64 -2 93 -6
50 -8 65 -19 40 -30 -7 -3 1 -3 17 0 24 5 27 3 15 -6 -12 -9 -11 -10 8 -5 16
5 22 2 23 -9 1 -9 3 -20 4 -26 1 -5 3 -14 4 -18 0 -5 21 -13 46 -19 33 -8 45
-7 42 1 -2 6 -23 15 -48 20 l-44 9 44 9 43 10 -27 14 c-16 8 -33 13 -39 10 -6
-2 0 -8 14 -14 l25 -11 -27 0 c-23 -1 -28 3 -28 22 0 17 -9 26 -36 36 -20 7
-46 14 -57 16 -12 1 -34 8 -50 14 -70 28 -362 48 -427 29z"/>
<path d="M1037 2108 c2 -5 22 -8 44 -8 21 0 39 3 39 8 0 4 -20 7 -44 7 -24 0
-42 -3 -39 -7z"/>
<path d="M675 2093 c-16 -3 -32 -8 -35 -12 -3 -3 -16 -12 -30 -18 l-25 -11 28
1 c15 1 31 7 35 13 4 6 30 16 57 21 49 11 28 14 -30 6z"/>
<path d="M855 2080 c3 -5 10 -10 16 -10 5 0 9 5 9 10 0 6 -7 10 -16 10 -8 0
-12 -4 -9 -10z"/>
<path d="M920 2075 c0 -8 2 -15 4 -15 2 0 6 7 10 15 3 8 1 15 -4 15 -6 0 -10
-7 -10 -15z"/>
<path d="M560 2060 c0 -5 5 -10 11 -10 5 0 7 5 4 10 -3 6 -8 10 -11 10 -2 0
-4 -4 -4 -10z"/>
<path d="M960 2059 c0 -5 9 -9 20 -9 11 0 20 2 20 4 0 2 -9 6 -20 9 -11 3 -20
1 -20 -4z"/>
<path d="M872 2030 c-7 -11 -20 -20 -30 -20 -14 0 -15 -2 -2 -10 22 -14 26
-13 39 16 14 32 10 41 -7 14z"/>
<path d="M940 2028 c0 -7 5 -20 10 -28 8 -12 10 -11 10 7 0 12 -4 25 -10 28
-5 3 -10 0 -10 -7z"/>
<path d="M1356 2023 c-6 -14 -5 -15 5 -6 7 7 10 15 7 18 -3 3 -9 -2 -12 -12z"/>
<path d="M517 2023 c7 -2 15 -4 19 -3 4 1 11 -4 15 -12 7 -10 9 -9 9 5 0 12
-8 17 -27 16 -16 0 -22 -3 -16 -6z"/>
<path d="M1008 2023 c6 -2 18 -2 25 0 6 3 1 5 -13 5 -14 0 -19 -2 -12 -5z"/>
<path d="M630 2010 c-8 -5 -10 -10 -5 -10 6 0 17 5 25 10 8 5 11 10 5 10 -5 0
-17 -5 -25 -10z"/>
<path d="M1388 2013 c6 -2 18 -2 25 0 6 3 1 5 -13 5 -14 0 -19 -2 -12 -5z"/>
<path d="M443 2003 c-16 -6 -17 -23 -2 -23 6 0 17 7 25 15 16 16 4 20 -23 8z"/>
<path d="M710 2001 c0 -5 9 -7 20 -4 11 3 20 7 20 9 0 2 -9 4 -20 4 -11 0 -20
-4 -20 -9z"/>
<path d="M760 1984 c0 -14 4 -23 10 -19 6 3 10 15 10 26 0 10 -4 19 -10 19 -5
0 -10 -12 -10 -26z"/>
<path d="M1514 2003 c10 -3 28 -13 39 -24 18 -17 18 -19 4 -25 -10 -3 -17 -11
-17 -16 0 -6 11 -3 25 6 23 15 25 15 35 -3 12 -24 13 -34 1 -27 -4 3 -17 -1
-27 -10 -18 -14 -18 -15 6 -8 14 3 30 10 36 15 7 6 16 3 25 -8 8 -9 9 -14 3
-10 -7 4 -17 0 -24 -8 -7 -8 -16 -12 -21 -9 -5 3 -9 1 -9 -5 0 -5 -12 -14 -27
-19 -28 -11 -28 -11 5 -8 19 2 37 9 42 16 5 8 9 9 14 1 4 -6 14 -11 22 -11 8
0 13 4 9 9 -3 5 -1 12 5 16 6 4 8 12 4 18 -6 12 13 -10 43 -51 36 -49 53 -66
53 -51 0 8 -8 26 -17 39 -23 30 -91 100 -97 100 -3 0 -19 12 -35 28 -53 48
-60 52 -88 51 -20 -1 -22 -3 -9 -6z m135 -130 c-6 -7 -15 -10 -20 -7 -13 8 -3
21 15 21 12 0 13 -4 5 -14z"/>
<path d="M666 1984 c-9 -24 -7 -28 9 -14 17 14 20 30 6 30 -5 0 -12 -7 -15
-16z"/>
<path d="M805 1980 c4 -6 11 -8 16 -5 14 9 11 15 -7 15 -8 0 -12 -5 -9 -10z"/>
<path d="M391 1966 c-7 -9 -8 -17 -2 -20 5 -3 12 0 15 6 5 10 7 10 12 1 3 -7
13 -13 22 -13 13 0 12 4 -6 20 -25 24 -26 24 -41 6z"/>
<path d="M600 1970 c0 -5 5 -10 10 -10 6 0 10 5 10 10 0 6 -4 10 -10 10 -5 0
-10 -4 -10 -10z"/>
<path d="M960 1970 c0 -5 5 -10 10 -10 6 0 10 5 10 10 0 6 -4 10 -10 10 -5 0
-10 -4 -10 -10z"/>
<path d="M730 1949 c0 -11 5 -17 10 -14 6 3 10 13 10 21 0 8 -4 14 -10 14 -5
0 -10 -9 -10 -21z"/>
<path d="M792 1952 c4 -16 0 -22 -16 -26 -17 -3 -16 -4 4 -3 14 1 31 -2 38 -6
6 -5 12 -4 12 1 0 6 -7 13 -16 16 -8 3 -13 10 -9 15 3 5 0 13 -6 17 -8 5 -10
1 -7 -14z"/>
<path d="M842 1958 c3 -7 13 -15 23 -17 17 -3 17 -2 3 13 -20 19 -31 21 -26 4z"/>
<path d="M1040 1953 c0 -17 -4 -21 -17 -17 -14 5 -15 4 -4 -4 14 -10 41 -6 41
7 0 3 -5 13 -10 21 -8 12 -10 11 -10 -7z"/>
<path d="M690 1945 c7 -9 15 -13 17 -11 7 7 -7 26 -19 26 -6 0 -6 -6 2 -15z"/>
<path d="M345 1931 c-3 -5 -1 -12 5 -16 12 -7 30 2 30 16 0 12 -27 12 -35 0z"/>
<path d="M477 1925 c3 -8 9 -12 14 -9 12 7 11 11 -5 17 -10 4 -13 1 -9 -8z"/>
<path d="M626 1932 c5 -4 12 -11 15 -15 3 -5 9 -2 12 5 3 9 -3 14 -15 15 -11
1 -16 -1 -12 -5z"/>
<path d="M670 1921 c0 -6 5 -11 10 -11 6 0 10 -11 10 -24 0 -14 -4 -28 -10
-31 -12 -7 -13 -25 -2 -25 13 0 28 45 22 69 -6 25 -30 42 -30 22z"/>
<path d="M870 1915 c0 -8 2 -15 4 -15 2 0 6 7 10 15 3 8 1 15 -4 15 -6 0 -10
-7 -10 -15z"/>
<path d="M960 1919 c0 -5 5 -7 10 -4 6 3 10 8 10 11 0 2 -4 4 -10 4 -5 0 -10
-5 -10 -11z"/>
<path d="M1078 1923 c7 -3 16 -2 19 1 4 3 -2 6 -13 5 -11 0 -14 -3 -6 -6z"/>
<path d="M1298 1923 c12 -2 32 -2 45 0 12 2 2 4 -23 4 -25 0 -35 -2 -22 -4z"/>
<path d="M1403 1923 c9 -2 23 -2 30 0 6 3 -1 5 -18 5 -16 0 -22 -2 -12 -5z"/>
<path d="M1496 1922 c7 -4 14 -16 17 -27 4 -15 5 -14 6 8 1 20 -4 27 -16 27
-12 0 -14 -3 -7 -8z"/>
<path d="M720 1909 c0 -5 5 -7 10 -4 6 3 10 8 10 11 0 2 -4 4 -10 4 -5 0 -10
-5 -10 -11z"/>
<path d="M1128 1903 c6 -2 18 -2 25 0 6 3 1 5 -13 5 -14 0 -19 -2 -12 -5z"/>
<path d="M300 1890 c0 -6 7 -19 16 -27 14 -15 16 -14 12 7 -3 24 -28 41 -28
20z"/>
<path d="M896 1845 c4 -33 8 -62 10 -64 9 -10 3 96 -6 109 -7 10 -8 -4 -4 -45z"/>
<path d="M990 1890 c0 -5 5 -10 10 -10 6 0 10 5 10 10 0 6 -4 10 -10 10 -5 0
-10 -4 -10 -10z"/>
<path d="M738 1879 c27 -10 19 -33 -8 -26 -12 3 -17 0 -14 -7 3 -7 -4 -20 -15
-30 -11 -10 -18 -23 -15 -27 3 -5 25 10 48 33 46 45 46 69 2 67 -20 0 -20 -1
2 -10z"/>
<path d="M930 1866 c0 -9 5 -16 10 -16 6 0 10 4 10 9 0 6 -4 13 -10 16 -5 3
-10 -1 -10 -9z"/>
<path d="M1535 1870 c4 -6 11 -8 16 -5 14 9 11 15 -7 15 -8 0 -12 -5 -9 -10z"/>
<path d="M956 1854 c-9 -22 -7 -84 2 -84 4 0 8 23 9 50 2 52 -1 60 -11 34z"/>
<path d="M1110 1860 c-9 -6 -10 -10 -3 -10 6 0 14 -8 16 -17 3 -10 4 -6 4 10
-1 15 -2 27 -2 27 0 0 -7 -5 -15 -10z"/>
<path d="M1027 1853 c-4 -3 -7 -25 -7 -47 0 -30 3 -37 10 -26 6 8 7 28 4 44
-4 19 -3 26 5 22 6 -4 11 -2 11 3 0 12 -13 14 -23 4z"/>
<path d="M1173 1853 c9 -2 17 -9 17 -14 0 -6 5 -7 10 -4 16 10 1 25 -23 24
-17 -1 -18 -2 -4 -6z"/>
<path d="M260 1836 c0 -24 17 -28 23 -6 3 13 0 20 -9 20 -8 0 -14 -6 -14 -14z"/>
<path d="M1070 1840 c0 -5 5 -10 11 -10 5 0 7 5 4 10 -3 6 -8 10 -11 10 -2 0
-4 -4 -4 -10z"/>
<path d="M1667 1828 c-3 -8 -1 -21 4 -29 5 -8 9 -9 10 -4 0 6 7 -6 14 -25 12
-32 14 -33 15 -10 2 24 2 23 10 -5 4 -16 11 -43 15 -59 5 -24 8 -27 16 -15 8
10 9 1 5 -30 -3 -32 -2 -41 5 -30 8 10 9 4 6 -21 -3 -19 0 -53 7 -75 13 -39
13 -38 12 42 0 46 -4 83 -7 83 -4 0 -9 15 -13 33 -5 26 -9 29 -17 17 -8 -12
-10 -9 -6 13 2 15 0 27 -4 27 -5 0 -9 9 -9 20 0 11 -7 23 -15 26 -9 4 -22 18
-29 31 -10 19 -14 22 -19 11z"/>
<path d="M780 1823 c0 -5 -14 -17 -30 -28 -16 -11 -30 -26 -30 -34 0 -9 6 -7
19 7 10 12 22 22 27 22 5 0 15 9 22 20 7 12 8 20 2 20 -5 0 -10 -3 -10 -7z"/>
<path d="M872 1800 c0 -19 2 -27 5 -17 2 9 2 25 0 35 -3 9 -5 1 -5 -18z"/>
<path d="M1090 1804 c0 -8 5 -12 10 -9 6 3 10 10 10 16 0 5 -4 9 -10 9 -5 0
-10 -7 -10 -16z"/>
<path d="M221 1760 c-13 -26 -24 -63 -24 -82 1 -18 -1 -27 -4 -20 -7 17 -29
-24 -38 -70 -5 -24 -4 -29 4 -18 6 8 11 25 11 37 0 12 4 25 10 28 5 3 7 0 4
-8 -2 -7 1 -14 8 -14 7 0 14 10 14 21 3 46 12 83 28 118 10 21 16 42 14 47 -1
5 -14 -12 -27 -39z"/>
<path d="M630 1792 c0 -12 -4 -22 -10 -22 -5 0 -10 -7 -10 -15 0 -8 5 -15 10
-15 6 0 10 8 10 18 0 15 2 15 10 2 8 -11 9 -7 4 15 -9 38 -14 44 -14 17z"/>
<path d="M801 1794 c0 -11 3 -14 6 -6 3 7 2 16 -1 19 -3 4 -6 -2 -5 -13z"/>
<path d="M540 1781 c0 -5 7 -12 16 -15 13 -5 15 -16 10 -54 -5 -38 -4 -42 5
-22 8 20 12 22 20 10 9 -12 10 -12 5 3 -3 10 -6 30 -6 43 0 14 -4 22 -10 19
-5 -3 -10 1 -10 9 0 9 -7 16 -15 16 -8 0 -15 -4 -15 -9z"/>
<path d="M1150 1780 c0 -5 5 -10 10 -10 6 0 10 5 10 10 0 6 -4 10 -10 10 -5 0
-10 -4 -10 -10z"/>
<path d="M1740 1760 c0 -5 5 -10 10 -10 6 0 10 -7 10 -15 0 -9 7 -18 15 -21 9
-4 13 -15 11 -28 -2 -11 -1 -15 1 -8 3 7 9 10 14 7 14 -9 -2 28 -23 51 -10 11
-15 24 -11 27 3 4 -1 7 -10 7 -9 0 -17 -4 -17 -10z"/>
<path d="M751 1731 c-8 -6 -9 -11 -3 -15 6 -3 14 -1 17 5 9 14 2 20 -14 10z"/>
<path d="M1692 1695 c0 -16 2 -22 5 -12 2 9 2 23 0 30 -3 6 -5 -1 -5 -18z"/>
<path d="M1831 1704 c0 -11 3 -14 6 -6 3 7 2 16 -1 19 -3 4 -6 -2 -5 -13z"/>
<path d="M610 1702 c0 -15 28 -23 36 -9 4 7 4 9 -1 5 -4 -4 -14 -3 -22 3 -8 7
-13 8 -13 1z"/>
<path d="M486 1685 c-8 -8 -25 -15 -37 -15 -17 0 -20 -3 -12 -11 12 -12 41 -1
63 25 16 20 6 21 -14 1z"/>
<path d="M915 1680 c-3 -5 -1 -10 4 -10 6 0 11 5 11 10 0 6 -2 10 -4 10 -3 0
-8 -4 -11 -10z"/>
<path d="M534 1652 c-6 -4 -14 -15 -17 -26 -5 -11 -13 -16 -23 -12 -8 3 -12 2
-9 -4 3 -5 -1 -23 -10 -39 -18 -35 -18 -41 -5 -41 6 0 10 9 10 20 0 11 18 38
40 59 23 22 37 42 32 45 -4 2 -13 2 -18 -2z"/>
<path d="M660 1650 c0 -5 5 -10 10 -10 6 0 10 5 10 10 0 6 -4 10 -10 10 -5 0
-10 -4 -10 -10z"/>
<path d="M877 1646 c-4 -10 -1 -13 9 -9 15 6 19 23 5 23 -5 0 -11 -7 -14 -14z"/>
<path d="M940 1650 c0 -5 5 -10 10 -10 6 0 10 5 10 10 0 6 -4 10 -10 10 -5 0
-10 -4 -10 -10z"/>
<path d="M712 1630 c-7 -11 -8 -20 -3 -20 9 0 24 30 18 36 -1 2 -8 -6 -15 -16z"/>
<path d="M590 1625 c0 -8 4 -15 10 -15 5 0 7 7 4 15 -4 8 -8 15 -10 15 -2 0
-4 -7 -4 -15z"/>
<path d="M1701 1624 c0 -11 3 -14 6 -6 3 7 2 16 -1 19 -3 4 -6 -2 -5 -13z"/>
<path d="M1731 1624 c0 -11 3 -14 6 -6 3 7 2 16 -1 19 -3 4 -6 -2 -5 -13z"/>
<path d="M915 1620 c3 -5 8 -10 11 -10 2 0 4 5 4 10 0 6 -5 10 -11 10 -5 0 -7
-4 -4 -10z"/>
<path d="M1810 1582 c0 -30 4 -52 11 -52 7 0 8 16 3 48 -9 64 -14 66 -14 4z"/>
<path d="M415 1610 c-3 -5 -2 -10 4 -10 5 0 13 5 16 10 3 6 2 10 -4 10 -5 0
-13 -4 -16 -10z"/>
<path d="M450 1599 c0 -5 5 -7 10 -4 6 3 10 8 10 11 0 2 -4 4 -10 4 -5 0 -10
-5 -10 -11z"/>
<path d="M585 1589 c-10 -15 1 -23 20 -15 9 3 13 10 10 16 -8 13 -22 13 -30
-1z"/>
<path d="M645 1590 c3 -5 8 -10 11 -10 2 0 4 5 4 10 0 6 -5 10 -11 10 -5 0 -7
-4 -4 -10z"/>
<path d="M512 1570 c-7 -11 -10 -20 -6 -20 7 0 34 27 34 34 0 13 -16 5 -28
-14z"/>
<path d="M401 1558 c-1 -16 -6 -28 -12 -28 -5 0 -7 -5 -4 -10 4 -6 12 -5 21 4
10 11 11 21 5 38 -10 23 -10 23 -10 -4z"/>
<path d="M430 1560 c0 -5 5 -10 10 -10 6 0 10 5 10 10 0 6 -4 10 -10 10 -5 0
-10 -4 -10 -10z"/>
<path d="M532 1544 c-12 -13 -19 -24 -15 -24 11 0 25 12 42 33 20 26 -1 19
-27 -9z"/>
<path d="M640 1560 c0 -5 5 -10 10 -10 6 0 10 5 10 10 0 6 -4 10 -10 10 -5 0
-10 -4 -10 -10z"/>
<path d="M124 1545 c-4 -8 -15 -15 -25 -15 -13 0 -19 -7 -18 -22 1 -16 3 -18
6 -6 2 9 15 19 29 22 13 4 24 13 24 21 0 19 -9 19 -16 0z"/>
<path d="M260 1550 c0 -5 5 -10 11 -10 5 0 7 5 4 10 -3 6 -8 10 -11 10 -2 0
-4 -4 -4 -10z"/>
<path d="M1682 1510 c0 -14 2 -19 5 -12 2 6 2 18 0 25 -3 6 -5 1 -5 -13z"/>
<path d="M1750 1506 c0 -8 -10 -18 -22 -22 -20 -6 -20 -7 -3 -16 14 -9 15 -12
4 -20 -10 -7 -7 -7 9 -3 31 9 29 -17 -3 -50 -28 -27 -23 -35 7 -9 15 14 20 15
35 3 16 -13 17 -12 4 3 -7 10 -10 26 -6 35 6 16 9 14 22 -10 13 -25 13 -32 0
-60 -9 -18 -19 -45 -22 -62 -7 -29 -7 -29 8 -10 9 11 17 26 17 34 0 30 42 101
57 99 30 -6 25 41 -8 74 l-31 31 6 -49 c6 -57 -7 -91 -20 -53 -4 13 -7 31 -6
39 2 11 -1 10 -8 -3 -16 -25 -30 -12 -26 24 2 16 0 32 -5 35 -5 3 -9 -2 -9
-10z m110 -68 c0 -5 -5 -8 -11 -8 -5 0 -7 5 -4 10 3 6 1 10 -5 10 -6 0 -8 5
-4 11 6 11 23 -6 24 -23z"/>
<path d="M37 1484 c-28 -30 -36 -59 -14 -51 6 2 12 9 12 16 0 7 8 19 19 26 10
8 16 19 14 26 -3 8 -14 1 -31 -17z"/>
<path d="M350 1490 c0 -5 5 -10 10 -10 6 0 10 5 10 10 0 6 -4 10 -10 10 -5 0
-10 -4 -10 -10z"/>
<path d="M490 1490 c18 -12 30 -13 30 -2 0 4 -10 9 -22 9 -18 2 -20 0 -8 -7z"/>
<path d="M400 1465 c0 -8 4 -15 10 -15 5 0 7 7 4 15 -4 8 -8 15 -10 15 -2 0
-4 -7 -4 -15z"/>
<path d="M461 1466 c-9 -11 -7 -15 8 -19 14 -3 17 0 14 14 -6 23 -7 23 -22 5z"/>
<path d="M317 1456 c-4 -10 -1 -13 9 -9 7 3 14 9 14 14 0 14 -17 10 -23 -5z"/>
<path d="M1700 1420 c0 -5 5 -10 10 -10 6 0 10 5 10 10 0 6 -4 10 -10 10 -5 0
-10 -4 -10 -10z"/>
<path d="M102 1404 c4 -21 22 -23 26 -1 2 10 -3 17 -13 17 -10 0 -15 -6 -13
-16z"/>
<path d="M631 1404 c0 -11 3 -14 6 -6 3 7 2 16 -1 19 -3 4 -6 -2 -5 -13z"/>
<path d="M7 1404 c-3 -3 9 -27 28 -52 19 -25 35 -49 35 -53 0 -5 6 -9 13 -9 8
0 22 -9 32 -20 10 -12 25 -18 32 -16 7 3 13 -1 13 -9 0 -8 7 -15 15 -15 17 0
20 16 4 26 -6 3 -9 15 -6 25 3 11 1 19 -4 19 -5 0 -9 -7 -9 -16 0 -11 -5 -14
-16 -10 -9 3 -18 6 -20 6 -3 0 -2 5 1 10 3 6 -3 10 -13 10 -24 0 -54 43 -46
64 3 9 10 13 15 10 15 -9 10 13 -6 26 -13 11 -15 8 -15 -15 l0 -28 -23 27
c-13 14 -26 24 -30 20z"/>
<path d="M151 1374 c0 -11 3 -14 6 -6 3 7 2 16 -1 19 -3 4 -6 -2 -5 -13z"/>
<path d="M1743 1353 c-12 -13 -18 -23 -13 -23 6 0 10 -5 10 -11 0 -5 -4 -8 -9
-5 -11 7 -22 -19 -26 -58 -2 -20 0 -25 6 -15 12 18 4 -47 -10 -85 -13 -33 -25
-34 -17 -2 3 14 3 33 -1 43 -6 14 -9 8 -14 -22 -4 -23 -3 -43 3 -46 5 -4 -2
-18 -17 -33 -14 -14 -23 -30 -20 -36 8 -13 -35 -60 -56 -60 -10 0 -21 -4 -24
-10 -3 -5 -16 -10 -28 -11 -21 0 -21 -1 -2 -10 18 -8 18 -9 -5 -7 -39 3 -73
-11 -61 -26 7 -9 -4 -17 -42 -31 -29 -10 -56 -19 -62 -20 -54 -7 -94 -19 -89
-26 3 -5 -3 -10 -13 -10 -36 -3 -59 -8 -98 -23 -60 -22 -328 -17 -372 7 -30
16 -59 24 -91 26 -7 1 -10 6 -7 11 6 10 -18 14 -60 11 -17 -2 -17 0 -5 8 12 9
9 11 -13 11 -16 0 -40 9 -54 20 -14 11 -34 20 -44 20 -11 0 -28 9 -39 20 -11
11 -28 20 -39 20 -22 0 -55 45 -45 63 5 9 4 9 -6 0 -10 -9 -17 -9 -33 0 -33
19 -58 47 -52 57 4 6 -1 10 -9 10 -33 0 -24 -21 26 -59 29 -22 62 -48 74 -58
11 -10 38 -28 60 -40 138 -75 172 -90 294 -123 l65 -18 -123 1 c-67 1 -122 -1
-122 -5 0 -5 12 -8 28 -9 15 0 81 -2 147 -4 66 -2 230 -7 365 -10 135 -3 254
-6 265 -7 40 -2 56 2 50 12 -3 5 -2 10 3 10 6 0 12 -7 16 -15 8 -22 86 -21 86
1 0 13 8 15 40 12 22 -2 40 0 40 4 0 11 -74 10 -85 -1 -6 -6 -25 -12 -42 -16
-28 -4 -33 -2 -33 14 0 10 -7 22 -16 25 -23 9 -31 7 -14 -4 10 -6 -30 -9 -113
-7 -70 1 -127 2 -127 3 0 2 26 8 58 14 213 42 445 176 454 262 2 17 10 33 18
36 12 4 13 2 3 -9 -7 -7 -13 -20 -13 -29 0 -21 38 43 56 96 8 24 14 63 13 87
-1 23 3 54 9 69 14 35 3 40 -25 11z m-1 -119 c-6 -31 -10 -39 -11 -22 0 15 -5
38 -10 52 -7 17 -7 26 2 29 22 8 28 -10 19 -59z m-20 -86 c-8 -8 -9 -4 -5 13
4 13 8 18 11 10 2 -7 -1 -18 -6 -23z m-52 -78 c0 -5 -4 -10 -10 -10 -5 0 -10
5 -10 10 0 6 5 10 10 10 6 0 10 -4 10 -10z"/>
<path d="M1731 1264 c0 -11 3 -14 6 -6 3 7 2 16 -1 19 -3 4 -6 -2 -5 -13z"/>
<path d="M1684 1349 c-3 -6 -2 -15 3 -20 5 -5 9 -1 10 11 2 22 -2 25 -13 9z"/>
<path d="M100 1343 c0 -4 5 -15 10 -23 8 -13 10 -13 10 2 0 9 -4 20 -10 23 -5
3 -10 3 -10 -2z"/>
<path d="M1681 1244 c0 -11 3 -14 6 -6 3 7 2 16 -1 19 -3 4 -6 -2 -5 -13z"/>
<path d="M210 1230 c0 -8 8 -24 16 -35 16 -19 16 -19 9 5 -9 31 -25 50 -25 30z"/>
<path d="M174 1207 c10 -7 27 -24 37 -38 10 -13 19 -18 19 -11 0 16 -45 62
-61 62 -7 0 -5 -6 5 -13z"/>
<path d="M166 1175 c-9 -26 -7 -32 5 -12 6 10 9 21 6 23 -2 3 -7 -2 -11 -11z"/>
<path d="M239 1155 c-3 -11 -3 -28 0 -37 5 -14 8 -14 19 -2 7 8 8 14 3 14 -5
0 -11 10 -13 23 -3 21 -4 21 -9 2z"/>
<path d="M1747 1071 c-4 -17 -3 -21 5 -13 5 5 8 16 6 23 -3 8 -7 3 -11 -10z"/>
<path d="M400 1060 c0 -5 5 -10 11 -10 5 0 7 5 4 10 -3 6 -8 10 -11 10 -2 0
-4 -4 -4 -10z"/>
<path d="M1601 1054 c0 -11 3 -14 6 -6 3 7 2 16 -1 19 -3 4 -6 -2 -5 -13z"/>
<path d="M1554 1025 c23 -18 46 -19 46 -4 0 6 -7 9 -15 6 -8 -4 -17 -2 -20 3
-4 6 -12 10 -18 10 -7 0 -3 -7 7 -15z"/>
<path d="M430 1016 c0 -8 5 -18 10 -21 6 -3 10 1 10 9 0 8 -4 18 -10 21 -5 3
-10 -1 -10 -9z"/>
<path d="M1520 999 c0 -5 5 -7 10 -4 6 3 10 8 10 11 0 2 -4 4 -10 4 -5 0 -10
-5 -10 -11z"/>
<path d="M468 893 c7 -3 16 -2 19 1 4 3 -2 6 -13 5 -11 0 -14 -3 -6 -6z"/>
<path d="M708 883 c7 -3 16 -2 19 1 4 3 -2 6 -13 5 -11 0 -14 -3 -6 -6z"/>
<path d="M2028 883 c18 -2 45 -2 60 0 15 2 0 4 -33 4 -33 0 -45 -2 -27 -4z"/>
<path d="M568 853 c7 -3 16 -2 19 1 4 3 -2 6 -13 5 -11 0 -14 -3 -6 -6z"/>
<path d="M630 830 c8 -5 20 -10 25 -10 6 0 3 5 -5 10 -8 5 -19 10 -25 10 -5 0
-3 -5 5 -10z"/>
<path d="M588 823 c7 -3 16 -2 19 1 4 3 -2 6 -13 5 -11 0 -14 -3 -6 -6z"/>
<path d="M2088 733 c7 -3 16 -2 19 1 4 3 -2 6 -13 5 -11 0 -14 -3 -6 -6z"/>
<path d="M1218 653 c12 -2 32 -2 45 0 12 2 2 4 -23 4 -25 0 -35 -2 -22 -4z"/>
<path d="M2218 563 c7 -3 16 -2 19 1 4 3 -2 6 -13 5 -11 0 -14 -3 -6 -6z"/>
<path d="M48 543 c6 -2 18 -2 25 0 6 3 1 5 -13 5 -14 0 -19 -2 -12 -5z"/>
<path d="M28 478 c-9 -7 -19 -23 -22 -34 -5 -17 -1 -23 16 -27 12 -4 27 -2 33
4 7 7 4 8 -8 3 -14 -5 -16 -2 -10 12 6 17 5 18 -13 4 -19 -14 -19 -14 0 8 19
22 32 30 22 13 -3 -5 1 -11 9 -15 9 -3 15 0 15 9 0 13 130 15 1048 13 980 -3
1047 -4 1047 -20 0 -10 6 -23 14 -30 12 -11 12 -10 5 2 -12 20 -11 43 1 52 14
11 25 10 25 -3 0 -5 -6 -7 -12 -3 -7 4 -5 -2 5 -13 9 -11 14 -22 11 -26 -3 -3
3 -5 15 -4 25 2 27 15 5 45 l-15 22 -1088 0 c-855 0 -1091 -3 -1103 -12z"/>
<path d="M445 399 c-4 -6 -5 -12 -2 -15 2 -3 7 2 10 11 7 17 1 20 -8 4z"/>
<path d="M610 395 c-7 -9 -8 -15 -2 -15 5 0 12 7 16 15 3 8 4 15 2 15 -2 0 -9
-7 -16 -15z"/>
<path d="M801 396 c14 -15 20 -16 35 -6 18 11 18 11 0 6 -10 -4 -26 -1 -35 6
-14 11 -14 10 0 -6z"/>
<path d="M976 394 c-4 -12 -14 -14 -38 -10 l-33 6 34 -13 c28 -11 31 -15 18
-25 -12 -10 -18 -9 -32 4 -14 15 -24 16 -55 7 -24 -6 -45 -6 -55 0 -9 5 -19 6
-23 3 -3 -4 4 -9 16 -13 12 -3 19 -9 16 -14 -3 -5 -17 -1 -32 9 -34 22 -92 22
-116 0 -15 -13 -23 -15 -33 -7 -7 6 -13 17 -12 23 0 7 2 6 6 -1 2 -7 9 -13 15
-13 6 0 5 6 -2 15 -9 11 -16 13 -24 5 -5 -5 -18 -10 -28 -10 -9 0 -22 -9 -28
-21 -20 -37 -41 -119 -34 -132 4 -6 4 -9 -1 -5 -4 4 -13 4 -19 -1 -7 -6 -16
-4 -24 5 -11 12 -9 14 10 15 17 1 18 3 6 6 -14 4 -18 15 -18 58 0 35 -5 57
-16 66 -17 14 -66 20 -57 6 2 -4 0 -14 -7 -22 -8 -9 -9 -40 -5 -97 4 -46 7
-94 7 -108 -1 -23 0 -23 8 -5 l9 20 0 -20 c1 -17 3 -17 11 -5 9 13 10 13 10 0
0 -13 2 -13 9 -1 8 12 12 12 25 2 9 -8 16 -9 16 -4 0 6 12 8 28 6 21 -4 24 -2
12 6 -17 12 -4 13 24 2 18 -7 16 -9 -12 -19 -41 -14 -40 -18 3 -17 33 2 65 15
35 15 -9 0 -7 5 6 15 10 8 26 14 34 14 11 0 10 -3 -4 -14 -26 -19 -13 -19 25
0 16 9 34 13 39 10 6 -3 19 -8 31 -10 15 -3 19 0 15 10 -6 17 2 19 24 5 10 -6
11 -10 3 -10 -7 0 -13 -4 -13 -9 0 -5 15 -4 35 2 40 12 54 5 35 -18 -11 -13
-10 -14 3 -9 24 9 28 32 6 39 -10 4 -19 13 -19 21 0 10 5 9 20 -6 11 -11 25
-20 31 -20 8 0 8 -5 -1 -15 -19 -23 0 -18 26 6 l23 21 23 -25 c18 -19 28 -23
39 -15 11 8 10 9 -4 4 -15 -5 -17 -2 -12 17 5 17 4 19 -4 7 -7 -9 -11 -10 -11
-3 0 18 19 26 25 11 3 -8 20 -12 46 -11 30 1 38 -2 30 -10 -14 -14 -14 -27 0
-27 5 0 8 4 5 9 -3 5 1 11 9 15 8 3 15 0 15 -7 0 -8 3 -9 8 -1 4 6 15 15 26
21 12 7 15 13 7 17 -6 4 -11 2 -11 -3 0 -6 -8 -11 -17 -11 -17 1 -17 1 0 14
18 14 24 32 7 21 -6 -4 -10 -3 -9 2 5 20 -13 41 -32 36 -11 -3 -19 0 -19 6 0
7 5 9 11 5 6 -3 15 0 20 7 6 10 9 11 9 2 0 -7 3 -13 8 -13 4 0 7 31 6 68 -1
55 -5 75 -24 100 -13 18 -31 31 -39 31 -13 -1 -12 -2 2 -6 21 -6 22 -17 2 -33
-12 -10 -15 -10 -15 0 0 7 -7 10 -16 6 -12 -4 -14 -1 -9 14 7 24 0 27 -9 4z
m-509 -135 l-6 -79 34 0 c24 0 35 -5 35 -15 0 -11 -12 -15 -50 -15 l-50 0 0
94 c0 66 4 96 13 99 25 9 29 -7 24 -84z m327 59 c8 -13 7 -26 0 -47 -7 -17 -8
-35 -3 -42 15 -24 11 -79 -6 -79 -8 0 -16 9 -16 20 -1 11 -3 25 -4 30 -1 6 -3
15 -4 20 0 6 -10 10 -21 10 -17 0 -20 -7 -20 -40 0 -29 -4 -40 -15 -40 -12 0
-15 18 -15 98 l0 98 46 -6 c29 -3 51 -12 58 -22z m126 12 c11 -11 20 -24 20
-30 0 -16 -30 -12 -36 5 -10 24 -34 17 -45 -12 -13 -34 -5 -103 13 -114 8 -6
18 -3 26 8 16 23 15 43 -3 43 -8 0 -15 7 -15 15 0 10 10 15 30 15 30 0 30 -1
30 -54 l0 -53 -45 -1 c-57 -2 -75 21 -75 96 0 43 5 58 25 77 29 30 49 31 75 5z
m148 -5 c3 -15 -2 -17 -32 -13 -33 4 -36 2 -36 -22 0 -24 3 -26 30 -22 23 3
30 0 30 -12 0 -11 -9 -16 -30 -16 -27 0 -30 -3 -30 -30 0 -28 3 -30 35 -30 24
0 35 -5 35 -15 0 -11 -12 -15 -50 -15 l-50 0 0 98 0 97 47 -1 c37 -1 49 -5 51
-19z m-419 -76 c25 -108 24 -99 6 -99 -8 0 -17 11 -21 25 -8 32 -49 35 -57 5
-6 -23 12 -39 23 -20 5 7 10 8 14 2 3 -5 -2 -16 -11 -23 -13 -11 -17 -11 -20
-1 -3 6 -14 12 -25 12 -12 0 -18 5 -15 13 2 6 12 49 22 95 16 73 20 82 41 82
20 0 24 -9 43 -91z m21 61 c0 -5 -5 -10 -11 -10 -5 0 -7 5 -4 10 3 6 8 10 11
10 2 0 4 -4 4 -10z m410 -20 c0 -5 -4 -10 -10 -10 -5 0 -10 5 -10 10 0 6 5 10
10 10 6 0 10 -4 10 -10z m-336 -120 c-6 -6 -10 -3 -10 10 0 13 4 16 10 10 7
-7 7 -13 0 -20z"/>
<path d="M720 290 c0 -23 5 -30 19 -30 11 0 23 5 26 10 11 18 -6 50 -26 50
-14 0 -19 -7 -19 -30z"/>
<path d="M601 288 c-1 -14 -4 -33 -7 -42 -4 -11 -1 -16 10 -16 17 0 19 19 6
60 l-8 25 -1 -27z"/>
<path d="M1102 403 c9 -2 15 -10 12 -18 -3 -7 0 -16 7 -21 8 -4 10 -3 5 5 -4
6 -3 17 3 24 7 10 3 13 -17 14 -15 0 -19 -1 -10 -4z"/>
<path d="M1368 403 c12 -5 17 -35 6 -46 -10 -9 -35 4 -28 15 4 6 10 5 15 -3 6
-10 9 -10 9 -2 0 22 -19 24 -47 6 -17 -11 -24 -13 -19 -5 7 11 4 12 -12 3 -17
-9 -23 -8 -31 6 -8 14 -10 15 -11 3 0 -13 -1 -13 -10 0 -13 20 -13 4 0 -20 7
-13 6 -19 -5 -24 -10 -4 -15 -19 -13 -48 l1 -43 7 45 7 45 1 -52 c1 -33 -2
-53 -10 -56 -10 -4 -10 -8 0 -15 11 -7 9 -10 -7 -15 -12 -3 -24 -1 -27 4 -3 5
1 9 8 9 9 0 9 3 -2 10 -8 5 -10 10 -4 10 16 0 18 91 2 101 -10 7 -9 9 5 9 9 0
17 4 17 10 0 5 -7 7 -15 4 -9 -4 -19 3 -26 20 -7 14 -15 26 -18 26 -4 0 -15
-17 -26 -37 -11 -21 -24 -41 -30 -45 -6 -5 -5 -8 3 -8 13 0 14 -58 0 -66 -4
-3 -8 -10 -8 -16 0 -6 7 -5 16 3 15 12 16 11 9 -11 -4 -14 -12 -26 -16 -28
-26 -10 15 -57 58 -65 17 -3 45 -2 62 3 23 6 33 5 43 -8 11 -13 10 -15 -9 -10
-13 4 -23 2 -23 -4 0 -5 10 -8 23 -6 12 2 21 9 20 16 -2 8 11 12 36 12 31 0
41 -4 46 -21 4 -11 9 -18 11 -16 3 2 -1 16 -7 31 -11 23 -18 26 -61 26 l-48 0
0 94 c0 52 -3 103 -6 113 -5 17 -5 17 6 1 8 -13 24 -18 55 -18 35 0 45 -4 45
-16 0 -13 -8 -15 -35 -12 -33 4 -35 2 -35 -24 0 -25 2 -27 30 -21 25 5 30 2
30 -14 0 -16 -5 -19 -30 -15 -28 4 -30 2 -30 -27 0 -28 3 -31 33 -31 26 0 35
-6 45 -30 12 -26 16 -28 34 -19 11 6 23 7 27 3 8 -12 34 -11 44 1 4 6 10 5 16
-4 7 -11 14 -10 38 7 l28 20 28 -22 c15 -12 27 -28 27 -36 0 -13 1 -13 9 0 6
8 7 18 5 22 -3 4 2 8 10 8 8 0 21 7 30 15 14 14 17 14 28 -5 7 -11 17 -20 21
-20 14 0 36 27 29 35 -4 4 3 2 16 -4 12 -6 22 -17 22 -23 0 -6 6 -5 17 3 15
12 16 12 10 -3 -4 -12 -1 -18 9 -18 8 0 12 5 9 10 -4 6 -2 16 3 23 13 17 15
207 2 207 -6 0 -10 -39 -10 -100 0 -93 -1 -100 -20 -100 -11 0 -20 5 -20 11 0
5 -4 7 -10 4 -5 -3 -8 0 -5 7 3 7 -4 38 -15 68 l-19 55 -1 -72 c0 -58 -3 -73
-15 -73 -12 0 -15 17 -15 95 0 87 2 95 19 95 14 0 25 -14 39 -52 11 -29 22
-60 25 -68 3 -8 6 18 6 58 1 46 5 71 11 67 6 -3 13 1 16 9 3 9 11 13 18 9 6
-4 4 2 -4 13 -22 29 -24 30 -17 11 5 -13 0 -21 -18 -29 -14 -6 -25 -15 -25
-20 0 -5 -5 -6 -10 -3 -6 4 -8 10 -6 14 3 4 -8 8 -24 9 -16 1 -31 -2 -35 -7
-3 -6 -18 -5 -38 3 -17 8 -43 13 -57 11 -14 -1 -29 3 -33 9 -6 7 -7 4 -3 -6 7
-23 -9 -32 -26 -15 -7 8 -22 12 -33 10 -17 -4 -18 -3 -5 7 13 10 12 11 -4 6
-15 -5 -17 -2 -13 13 3 14 1 18 -9 14 -11 -4 -11 -10 -3 -26 9 -16 8 -23 -7
-34 -23 -17 -37 2 -23 29 9 17 8 18 -11 6 -19 -11 -24 -10 -37 10 -9 12 -21
22 -27 21 -7 0 -6 -2 2 -6z m-198 -33 c0 -5 -4 -10 -10 -10 -5 0 -10 5 -10 10
0 6 5 10 10 10 6 0 10 -4 10 -10z m267 -95 c7 -37 14 -70 16 -72 2 -2 7 24 10
58 8 73 11 79 41 79 23 0 24 -3 25 -95 1 -84 -1 -95 -17 -95 -15 0 -17 10 -15
83 l2 82 -16 -82 c-13 -67 -20 -83 -34 -83 -14 0 -19 12 -24 58 -11 96 -24
115 -18 25 5 -73 4 -83 -11 -83 -14 0 -16 14 -16 98 0 96 1 99 23 97 19 -1 24
-10 34 -70z m198 69 c26 -11 44 -57 40 -107 -5 -64 -20 -87 -55 -87 -37 0 -57
20 -65 70 -9 53 2 97 28 115 24 17 29 18 52 9z m-456 -86 l-2 -83 31 3 c24 3
32 -1 32 -12 0 -12 -11 -16 -50 -16 l-50 0 0 95 c0 89 1 95 21 95 19 0 20 -5
18 -82z m166 -57 c-3 -6 -11 -11 -17 -11 -6 0 -6 6 2 15 14 17 26 13 15 -4z"/>
<path d="M1597 314 c-13 -13 -8 -121 7 -133 23 -20 37 11 34 76 -2 43 -7 59
-18 61 -9 1 -19 0 -23 -4z m28 -64 c3 -5 1 -10 -4 -10 -6 0 -11 5 -11 10 0 6
2 10 4 10 3 0 8 -4 11 -10z"/>
<path d="M1420 399 c0 -5 5 -7 10 -4 6 3 10 8 10 11 0 2 -4 4 -10 4 -5 0 -10
-5 -10 -11z"/>
<path d="M1513 397 c-3 -6 -1 -7 5 -3 7 4 12 2 12 -4 0 -6 5 -8 10 -5 6 3 10
10 10 14 0 11 -30 9 -37 -2z"/>
<path d="M1590 390 c6 -11 13 -20 15 -20 2 0 3 9 2 20 -1 11 -7 20 -14 20 -11
0 -11 -5 -3 -20z"/>
<path d="M1683 403 c-17 -6 -17 -20 0 -26 8 -3 13 3 13 14 0 11 0 19 -1 18 0
0 -6 -3 -12 -6z"/>
<path d="M1710 399 c0 -11 27 -12 34 -1 2 4 -4 9 -15 9 -10 1 -19 -2 -19 -8z"/>
<path d="M1785 401 c4 -8 2 -17 -6 -22 -9 -6 -10 -9 -2 -9 19 0 27 21 13 33
-10 9 -11 9 -5 -2z"/>
<path d="M408 393 c7 -3 16 -2 19 1 4 3 -2 6 -13 5 -11 0 -14 -3 -6 -6z"/>
<path d="M655 390 c3 -5 8 -10 11 -10 2 0 4 5 4 10 0 6 -5 10 -11 10 -5 0 -7
-4 -4 -10z"/>
<path d="M688 393 c7 -3 16 -2 19 1 4 3 -2 6 -13 5 -11 0 -14 -3 -6 -6z"/>
<path d="M724 384 c-19 -15 -19 -15 1 -6 11 5 27 12 35 15 13 5 13 6 -1 6 -8
1 -24 -6 -35 -15z"/>
<path d="M1626 385 c5 -11 44 -28 50 -22 2 1 -10 10 -26 19 -21 12 -27 13 -24
3z"/>
<path d="M1749 383 c-13 -16 -12 -17 4 -4 16 13 21 21 13 21 -2 0 -10 -8 -17
-17z"/>
<path d="M856 381 c-4 -5 3 -7 14 -4 23 6 26 13 6 13 -8 0 -17 -4 -20 -9z"/>
<path d="M560 369 c0 -5 5 -7 10 -4 6 3 10 8 10 11 0 2 -4 4 -10 4 -5 0 -10
-5 -10 -11z"/>
<path d="M666 122 c-2 -4 4 -8 14 -8 10 0 16 4 14 8 -3 4 -9 8 -14 8 -5 0 -11
-4 -14 -8z"/>
<path d="M1530 120 c0 -6 9 -10 19 -10 11 0 23 -4 26 -10 9 -15 22 -12 22 5 0
8 -4 12 -8 9 -4 -2 -19 0 -33 6 -17 6 -26 6 -26 0z"/>
<path d="M1670 120 c0 -5 5 -10 11 -10 5 0 7 5 4 10 -3 6 -8 10 -11 10 -2 0
-4 -4 -4 -10z"/>
<path d="M1740 120 c0 -5 5 -10 11 -10 5 0 7 5 4 10 -3 6 -8 10 -11 10 -2 0
-4 -4 -4 -10z"/>
<path d="M790 109 c0 -5 5 -7 10 -4 6 3 10 8 10 11 0 2 -4 4 -10 4 -5 0 -10
-5 -10 -11z"/>
<path d="M909 112 c9 -7 10 -11 2 -15 -7 -4 -8 -5 0 -3 15 2 13 20 -3 24 -10
3 -10 2 1 -6z"/>
<path d="M998 113 c7 -3 16 -2 19 1 4 3 -2 6 -13 5 -11 0 -14 -3 -6 -6z"/>
<path d="M1116 108 c2 -3 1 -8 -3 -11 -10 -5 5 -2 36 8 16 5 21 4 17 -4 -4 -6
-2 -11 4 -11 7 0 10 6 8 13 -3 6 -18 12 -35 12 -17 0 -29 -3 -27 -7z"/>
<path d="M1205 111 c-3 -5 -1 -12 4 -15 5 -3 11 1 15 9 6 16 -9 21 -19 6z"/>
<path d="M1341 104 c0 -11 3 -14 6 -6 3 7 2 16 -1 19 -3 4 -6 -2 -5 -13z"/>
<path d="M647 99 c7 -7 15 -10 18 -7 3 3 -2 9 -12 12 -14 6 -15 5 -6 -5z"/>
<path d="M700 100 c-9 -6 -10 -10 -3 -10 6 0 15 5 18 10 8 12 4 12 -15 0z"/>
<path d="M40 80 c0 -5 5 -10 11 -10 5 0 7 5 4 10 -3 6 -8 10 -11 10 -2 0 -4
-4 -4 -10z"/>
<path d="M2230 83 c17 -8 11 -25 -17 -55 -30 -32 -14 -39 18 -7 22 22 23 61 1
65 -7 1 -8 0 -2 -3z"/>
<path d="M6 55 c8 -36 12 -41 44 -50 14 -4 22 -4 18 0 -4 4 -3 18 3 32 6 16 6
22 -1 18 -6 -3 -10 -13 -10 -21 0 -24 -17 -16 -39 19 l-22 32 7 -30z"/>
</g>
</svg>
